<svg
    viewBox="0 0 17.999973 17.999973"
    xmlns="http://www.w3.org/2000/svg"
    xmlns:svg="http://www.w3.org/2000/svg"
>
    <path
        fill-rule="evenodd"
        clip-rule="evenodd"
        d="M 8,0 C 3.58172,0 0,3.58172 0,8 c 0,4.4183 3.58172,8 8,8 1.8487,0 3.551,-0.6271 4.9056,-1.6801 l 3.3873,3.3872 c 0.3905,0.3905 1.0237,0.3905 1.4142,0 0.3905,-0.3905 0.3905,-1.0237 0,-1.4142 L 14.3199,12.9056 C 15.3729,11.551 16,9.8487 16,8 16,3.58172 12.4183,0 8,0 Z M 2,8 C 2,4.68629 4.68629,2 8,2 c 3.3137,0 6,2.68629 6,6 0,3.3137 -2.6863,6 -6,6 C 4.68629,14 2,11.3137 2,8 Z"
    />
</svg>
